# xmcd
#
# Track frame offsets: 
#        150
#        24247
#        46483
#        68408
#        94023
#        114777
#        132413
#        148632
#        174261
#        191007
#        211665
#
# Disc length: 3087 seconds
#
# Revision: 0
# Processed by: cddbd v1.5.2PL0 Copyright (c) Steve Scherf et al.
# Submitted via: ExactAudioCopy v0.99pb5
#
DISCID=890c0d0b
DTITLE=Stewart, Eric - Viva La Difference
DYEAR=2009
DGENRE=Pop/Rock
TTITLE0=Gnome Sweet Gnomes
TTITLE1=It's In The Blood
TTITLE2=Friends Like These
TTITLE3=Down By The Palace
TTITLE4=Do Not Bend
TTITLE5=Millennium Blues
TTITLE6=Viva La Difference
TTITLE7=We're Not Alone
TTITLE8=Word Of The Mouth
TTITLE9=Sleep At Night
TTITLE10=Can't Get Enough
EXTD=
EXTT0=
EXTT1=
EXTT2=
EXTT3=
EXTT4=
EXTT5=
EXTT6=
EXTT7=
EXTT8=
EXTT9=
EXTT10=
PLAYORDER=
